# xmcd
#
# Track frame offsets: 
#        150
#        31803
#        64571
#        83295
#        103802
#        121189
#        149276
#        170898
#        184495
#        219046
#        239873
#        267736
#        291811
#        308306
#        331265
#        354336
#
# Disc length: 5055 seconds
#
# Revision: 0
# Processed by: cddbd v1.5.2PL0 Copyright (c) Steve Scherf et al.
# Submitted via: ExactAudioCopy v1.3
#
DISCID=e713bd10
DTITLE=Guitar Shorty - Trying To Find My Way Back
DYEAR=2019
DGENRE=Blues
TTITLE0=Trying To Find My Way Back
TTITLE1=You Are My Light At End of the Tull
TTITLE2=Yaw Yaw
TTITLE3=Wonna Get Layed
TTITLE4=Smokie the Ghost
TTITLE5=Skin To Skin
TTITLE6=Nothing But a Thang
TTITLE7=No More War
TTITLE8=New Girlfriend Blues
TTITLE9=Manipulator
TTITLE10=It's Hard To Live In Two Worlds
TTITLE11=I Get Lonely For You Baby
TTITLE12=Hard Times
TTITLE13=Go With the Flow
TTITLE14=For What It's Worth
TTITLE15=Big Old Small World
EXTD=
EXTT0=
EXTT1=
EXTT2=
EXTT3=
EXTT4=
EXTT5=
EXTT6=
EXTT7=
EXTT8=
EXTT9=
EXTT10=
EXTT11=
EXTT12=
EXTT13=
EXTT14=
EXTT15=
PLAYORDER=
